{"glyphs":{":":{"x_min":0,"x_max":866,"ha":866,"o":"m 847 95 l 785 95 l 785 1 l 723 1 l 723 95 l 536 95 l 536 147 l 726 394 l 785 394 l 785 145 l 847 145 z m 660 665 l 270 1 l 212 1 l 604 665 z m 724 145 l 724 320 l 703 290 l 594 145 z m 326 383 q 326 323 279 289 q 236 258 174 258 q 107 258 65 291 q 20 327 20 393 l 20 404 l 83 404 l 83 396 q 83 309 174 309 q 211 309 234 327 q 261 347 261 382 q 261 450 163 450 l 144 450 l 144 495 l 165 494 q 252 490 252 553 q 252 613 176 613 q 93 613 93 526 l 31 526 q 31 593 70 628 q 109 662 177 662 q 232 662 270 638 q 314 609 314 557 q 314 495 255 476 q 326 454 326 383 z"},"$":{"x_min":0,"x_max":600,"ha":600,"o":"m 472 303 q 472 230 422 180 q 373 130 300 130 q 227 130 178 179 q 130 228 130 301 q 130 374 179 424 q 228 473 300 473 q 372 473 422 424 q 472 374 472 303 z"},"?":{"x_min":0,"x_max":366,"ha":366,"o":"m 156 410 q 62 442 62 564 l 62 668 l 150 668 l 150 547 l 110 547 q 110 479 156 457 z m 306 411 q 212 443 212 565 l 212 669 l 300 669 l 300 548 l 260 548 q 260 480 306 458 z"},"<":{"x_min":0,"x_max":233,"ha":233,"o":"m 165 408 q 107 426 83 466 q 62 501 62 565 l 62 668 l 156 668 l 156 546 l 118 546 q 118 478 165 457 z"},"'":{"x_min":0,"x_max":500,"ha":500,"o":"m 482 232 q 482 137 381 100 q 434 51 434 -5 q 434 -78 378 -118 q 328 -154 252 -154 q 168 -154 117 -111 q 62 -64 62 18 l 62 26 l 140 26 q 140 -88 251 -88 q 293 -88 321 -69 q 352 -46 352 -6 q 352 30 321 55 q 286 83 229 114 l 167 147 q 94 186 67 211 q 20 254 20 314 q 20 413 120 447 q 74 490 74 543 q 74 611 129 650 q 179 685 249 685 q 331 685 381 641 q 432 594 432 513 l 354 513 q 354 619 249 619 q 210 619 185 601 q 156 581 156 543 q 156 502 204 472 q 219 462 254 444 q 345 395 367 382 q 439 338 463 300 q 482 269 482 232 z m 407 222 q 407 259 368 289 q 325 322 260 357 l 210 384 l 165 407 q 94 384 94 321 q 94 282 154 240 q 162 235 247 187 l 333 138 q 407 161 407 222 z"},"=":{"x_min":0,"x_max":233,"ha":233,"o":"m 61 408 q 119 426 143 466 q 164 501 164 565 l 164 668 l 70 668 l 70 546 l 108 546 q 108 478 61 457 z"},"a":{"x_min":0,"x_max":866,"ha":866,"o":"m 642 665 l 251 1 l 193 1 l 585 665 z m 824 119 q 824 59 777 25 q 734 -6 672 -6 q 605 -6 563 27 q 518 63 518 129 l 518 140 l 581 140 l 581 132 q 581 45 672 45 q 709 45 732 63 q 759 83 759 118 q 759 186 661 186 l 642 186 l 642 231 l 663 230 q 750 226 750 289 q 750 349 674 349 q 591 349 591 262 l 529 262 q 529 329 568 364 q 607 398 675 398 q 730 398 768 374 q 812 345 812 293 q 812 231 753 212 q 824 190 824 119 z m 215 265 l 151 265 l 151 567 l 144 565 l 114 550 q 96 541 48 536 l 48 581 q 95 587 119 601 q 149 618 163 657 l 215 657 z"},"L":{"x_min":0,"x_max":667,"ha":667,"o":"m 601 294 l 499 142 l 577 2 l 477 2 l 444 61 l 350 -78 l 304 -47 l 412 117 l 325 279 l 154 279 l 154 2 l 67 2 l 67 669 l 325 669 q 496 669 543 572 q 562 532 562 483 q 562 411 522 364 q 483 316 412 300 l 468 197 l 555 325 z m 471 476 q 471 549 416 573 q 375 591 291 591 l 155 591 l 155 355 l 325 355 q 471 355 471 476 z"},"3":{"x_min":0,"x_max":866,"ha":866,"o":"m 847 95 l 785 95 l 785 1 l 723 1 l 723 95 l 536 95 l 536 147 l 726 394 l 785 394 l 785 145 l 847 145 z m 660 665 l 270 1 l 212 1 l 604 665 z m 724 145 l 724 320 l 594 145 z m 232 265 l 168 265 l 168 567 l 161 565 l 131 550 q 113 541 65 536 l 65 581 q 112 587 136 601 q 166 618 180 657 l 232 657 z"},";":{"x_min":0,"x_max":360,"ha":360,"o":"m 332 383 q 332 323 285 289 q 242 258 180 258 q 113 258 71 291 q 26 327 26 393 l 26 404 l 89 404 l 89 396 q 89 309 180 309 q 217 309 240 327 q 267 347 267 382 q 267 450 169 450 l 150 450 l 150 495 l 171 494 q 258 490 258 553 q 258 613 182 613 q 99 613 99 526 l 37 526 q 37 593 76 628 q 115 662 183 662 q 238 662 276 638 q 320 609 320 557 q 320 495 261 476 q 332 454 332 383 z"},"J":{"x_min":0,"x_max":900,"ha":900,"o":"m 821 268 l 761 268 l 761 597 l 627 268 l 588 268 l 458 597 l 458 268 l 396 268 l 396 668 l 491 668 l 607 384 l 729 668 l 821 668 z m 353 613 l 223 613 l 223 268 l 155 268 l 155 613 l 24 613 l 24 668 l 353 668 z"},"V":{"x_min":0,"x_max":736,"ha":736,"o":"m 682 1 l 598 1 l 598 668 l 682 668 z m 535 604 l 493 607 q 435 611 428 566 q 426 553 426 519 l 426 482 l 524 482 l 524 424 l 426 424 l 426 1 l 343 1 l 343 424 l 171 424 l 171 1 l 88 1 l 88 424 l 7 424 l 7 482 l 88 482 l 88 521 q 88 596 111 625 q 149 673 228 670 l 279 668 l 279 604 l 238 607 q 190 611 177 576 q 170 557 170 519 l 170 482 l 343 482 l 343 521 q 343 595 366 625 q 403 673 482 670 l 535 668 z"},"\"":{"x_min":0,"x_max":667,"ha":667,"o":"m 576 333 q 576 232 506 163 q 435 94 334 94 q 233 94 163 164 q 93 234 93 335 q 93 437 162 506 q 232 576 334 576 q 437 576 506 506 q 576 436 576 333 z m 525 333 q 525 414 470 470 q 415 525 335 525 q 255 525 199 470 q 143 414 143 334 q 143 254 198 198 q 254 143 334 143 q 413 143 469 198 q 525 254 525 333 z"},"7":{"x_min":0,"x_max":500,"ha":500,"o":"m 496 436 q 496 333 426 262 q 355 192 252 192 q 150 192 78 263 q 7 334 7 436 q 7 538 78 608 q 149 678 251 678 q 353 678 424 608 q 496 538 496 436 z m 448 436 q 448 518 390 575 q 333 632 251 632 q 169 632 112 575 q 54 518 54 436 q 54 354 112 296 q 170 239 252 239 q 334 239 391 296 q 448 354 448 436 z m 354 325 l 308 325 q 299 343 299 365 q 299 395 290 403 q 282 411 252 411 l 210 411 l 210 325 l 161 325 l 161 546 l 264 546 q 349 546 349 479 q 349 450 323 432 q 343 419 346 378 l 347 366 l 348 357 l 348 350 z m 300 479 q 300 504 257 504 l 210 504 l 210 452 l 253 452 q 300 452 300 479 z"},"S":{"x_min":0,"x_max":500,"ha":500,"o":"m 501 217 l 1 217 l 1 293 l 501 293 z"},"}":{"x_min":0,"x_max":864,"ha":864,"o":"m 821 -1 l 40 -1 l 40 781 l 821 781 z m 751 69 l 751 711 l 110 711 l 110 69 z m 603 223 l 260 223 l 260 563 l 603 563 z"},"Z":{"x_min":0,"x_max":667,"ha":667,"o":"m 604 186 q 604 82 502 28 q 471 12 426 4 l 426 -103 l 369 -103 l 369 -2 l 362 -3 l 312 -3 l 306 -2 l 306 -103 l 249 -103 l 249 5 q 169 19 125 60 q 64 117 64 202 l 64 208 l 150 208 q 150 116 249 77 l 249 327 q 192 343 161 361 q 79 409 79 494 q 79 576 149 625 q 184 650 249 665 l 249 753 l 306 753 l 306 672 l 312 672 l 341 673 l 362 672 l 369 672 l 369 753 l 426 753 l 426 664 q 517 643 555 589 q 582 551 582 495 l 497 495 q 491 535 477 554 q 463 573 426 590 l 426 367 q 604 319 604 186 z m 369 379 l 369 604 l 335 606 l 306 605 l 306 390 z m 249 403 l 249 594 q 208 577 190 560 q 165 536 165 498 q 165 437 249 403 z m 519 180 q 519 255 426 288 l 426 77 q 519 116 519 180 z m 369 64 l 369 302 l 306 313 l 306 66 l 345 64 z"},"x":{"x_min":0,"x_max":786,"ha":786,"o":"m 454 318 l 582 124 l 582 318 z m 676 468 l 676 371 l 747 371 l 747 318 l 676 318 l 676 0 l 567 0 l 354 318 l 200 318 l 200 0 l 106 0 l 106 318 l 32 318 l 32 371 l 106 371 l 106 468 l 33 468 l 33 520 l 106 520 l 106 672 l 221 672 l 321 520 l 582 520 l 582 672 l 676 672 l 676 520 l 747 520 l 747 468 z m 355 468 l 419 371 l 582 371 l 582 468 z m 254 468 l 200 468 l 200 371 l 318 371 z m 200 520 l 219 520 l 200 548 z"},")":{"x_min":0,"x_max":500,"ha":500,"o":"m 302 372 l 211 372 l 211 493 l 302 493 z m 467 37 q 467 -68 409 -128 q 351 -188 246 -188 q 159 -188 102 -143 q 39 -94 39 -10 q 39 46 71 90 q 93 121 148 165 q 191 200 203 220 q 216 244 216 296 l 216 305 l 296 305 l 296 297 q 296 234 282 200 q 267 165 224 128 l 192 100 q 130 46 130 -10 q 130 -58 164 -86 q 198 -115 247 -115 q 332 -115 363 -52 q 382 -14 382 37 z"},"&":{"x_min":0,"x_max":667,"ha":667,"o":"m 562 603 l 499 603 l 499 -97 l 428 -97 l 428 603 l 327 603 l 327 -97 l 255 -97 l 255 316 l 241 316 q 162 316 110 364 q 59 411 59 489 q 59 594 142 640 q 191 667 281 667 l 562 667 z"},"_":{"x_min":0,"x_max":216,"ha":216,"o":"m 156 21 q 156 -44 136 -79 q 112 -119 54 -137 l 54 -88 q 102 -66 102 1 l 68 1 l 68 123 l 156 123 z"},"v":{"x_min":0,"x_max":887,"ha":887,"o":"m 816 343 q 816 187 708 80 q 601 -28 445 -28 q 288 -28 181 79 q 74 186 74 342 q 74 497 182 605 q 290 713 445 713 q 600 713 708 606 q 816 498 816 343 z m 421 133 l 421 249 l 271 249 q 243 206 243 186 q 243 161 265 143 q 277 133 292 133 z m 232 196 q 251 233 290 296 q 296 306 312 331 l 324 331 l 295 402 l 218 397 l 218 384 q 214 376 192 339 q 174 309 174 299 q 174 282 202 238 q 217 214 232 196 z m 271 478 l 366 417 l 449 541 q 437 573 429 585 q 413 606 388 606 q 359 606 345 586 z m 429 604 l 496 460 l 490 451 l 567 433 l 604 501 l 594 506 q 581 536 554 583 q 550 595 514 604 z m 637 434 l 541 379 l 614 246 q 620 246 633 246 q 645 245 651 245 q 690 245 701 270 q 708 285 708 292 q 708 299 699 316 z m 677 237 q 561 237 520 240 l 514 250 l 465 190 l 506 128 l 515 133 q 519 134 529 134 l 598 134 q 603 136 605 136 q 630 142 640 159 q 645 168 656 190 q 673 224 677 237 z"},"O":{"x_min":0,"x_max":800,"ha":800,"o":"m 734 1 l 67 1 l 67 668 l 734 668 z"},"(":{"x_min":0,"x_max":233,"ha":233,"o":"m 164 372 l 72 372 l 72 493 l 164 493 z m 163 -174 l 74 -174 l 74 5 l 95 305 l 142 305 l 163 6 z"},"C":{"x_min":0,"x_max":754,"ha":754,"o":"m 755 217 l 1 217 l 1 293 l 755 293 z"},"W":{"x_min":0,"x_max":481,"ha":481,"o":"m 426 562 l 343 562 l 343 668 l 426 668 z m 426 1 l 343 1 l 343 424 l 171 424 l 171 1 l 88 1 l 88 424 l 7 424 l 7 482 l 88 482 l 88 521 q 88 596 111 625 q 149 673 228 670 l 279 668 l 279 604 l 238 607 q 190 611 177 576 q 170 557 170 519 l 170 482 l 426 482 z"},"A":{"x_min":0,"x_max":366,"ha":366,"o":"m 154 668 q 60 636 60 514 l 60 410 l 148 410 l 148 531 l 108 531 q 108 599 154 621 z m 304 667 q 210 635 210 513 l 210 409 l 298 409 l 298 530 l 258 530 q 258 598 304 620 z"},"f":{"x_min":0,"x_max":866,"ha":866,"o":"m 849 117 q 849 55 800 23 q 758 -5 693 -5 q 628 -5 586 22 q 537 53 537 115 q 537 189 613 213 q 554 237 554 296 q 554 348 599 376 q 638 400 693 400 q 749 400 787 377 q 832 349 832 297 q 832 237 773 213 q 849 189 849 117 z m 661 665 l 271 1 l 213 1 l 604 665 z m 317 607 l 309 599 q 163 453 163 276 l 162 266 l 97 266 q 97 354 140 448 q 181 537 247 603 l 228 603 l 199 602 l 35 602 l 35 656 l 317 656 z m 772 293 q 772 354 692 354 q 614 354 614 293 q 614 232 694 232 q 772 232 772 293 z m 784 117 q 784 190 691 190 q 602 190 602 118 q 602 42 693 42 q 784 42 784 117 z"},"Q":{"x_min":0,"x_max":667,"ha":667,"o":"m 612 60 l 57 60 l 57 616 l 612 616 z m 560 112 l 560 564 l 109 564 l 109 112 z"},"w":{"x_min":0,"x_max":944,"ha":944,"o":"m 458 520 l 483 520 l 471 563 z m 148 318 l 35 318 l 35 371 l 139 371 l 123 468 l 33 468 l 33 520 l 114 520 l 88 674 l 193 674 l 211 520 l 373 520 l 418 674 l 524 674 l 569 520 l 734 520 l 753 674 l 860 674 l 832 520 l 909 520 l 909 468 l 823 468 l 806 371 l 904 371 l 904 318 l 796 318 l 739 0 l 637 0 l 543 318 l 398 318 l 305 0 l 203 0 z m 414 371 l 527 371 l 499 468 l 443 468 z m 314 318 l 234 318 l 257 120 z m 228 371 l 330 371 l 358 468 l 217 468 z m 710 318 l 628 318 l 687 120 z m 613 371 l 716 371 l 728 468 l 584 468 z"},"-":{"x_min":0,"x_max":533,"ha":533,"o":"m 529 668 l 391 416 l 505 416 l 505 365 l 364 365 l 311 271 l 480 271 l 480 219 l 310 219 l 310 1 l 225 1 l 225 219 l 60 219 l 60 271 l 223 271 l 170 365 l 30 365 l 30 416 l 145 416 l 5 668 l 101 668 l 230 417 l 252 368 l 268 335 l 284 368 l 306 416 l 328 461 l 344 491 l 437 668 z"},"E":{"x_min":0,"x_max":233,"ha":233,"o":"m 60 99 l 183 217 l 183 297 l 60 418 l 60 339 l 139 256 l 60 175 z"},"s":{"x_min":0,"x_max":844,"ha":844,"o":"m 807 173 l 507 173 l 507 0 l 443 0 l 443 451 l 807 451 l 807 388 l 507 388 l 507 236 l 807 236 z m 412 329 l 61 329 l 61 781 l 124 781 l 124 393 l 412 393 z"},">":{"x_min":0,"x_max":233,"ha":233,"o":"m 169 668 q 111 650 87 610 q 66 575 66 511 l 66 408 l 160 408 l 160 530 l 122 530 q 122 598 169 619 z"},"l":{"x_min":0,"x_max":1219,"ha":1219,"o":"m 1197 196 q 1197 110 1163 57 q 1122 -6 1041 -6 q 961 -6 920 56 q 885 108 885 193 q 885 279 919 333 q 960 398 1041 398 q 1123 398 1163 335 q 1197 282 1197 196 z m 818 196 q 818 110 784 57 q 743 -6 662 -6 q 582 -6 541 56 q 506 108 506 193 q 506 279 540 333 q 581 398 662 398 q 744 398 784 335 q 818 282 818 196 z m 650 665 l 259 1 l 201 1 l 594 665 z m 337 460 q 337 375 302 321 q 260 258 180 258 q 100 258 58 320 q 23 373 23 457 q 23 543 58 597 q 100 662 181 662 q 262 662 303 599 q 337 545 337 460 z m 1134 197 q 1134 349 1041 349 q 947 349 947 190 q 947 44 1041 44 q 1134 44 1134 197 z m 755 196 q 755 349 662 349 q 568 349 568 190 q 568 44 662 44 q 755 44 755 196 z m 273 461 q 273 612 181 612 q 87 612 87 454 q 87 308 180 308 q 273 308 273 461 z"},"8":{"x_min":0,"x_max":500,"ha":500,"o":"m 496 436 q 496 333 426 262 q 355 192 252 192 q 150 192 78 263 q 7 334 7 436 q 7 538 78 608 q 149 678 251 678 q 353 678 424 608 q 496 538 496 436 z m 448 436 q 448 518 390 575 q 333 632 251 632 q 169 632 112 575 q 54 518 54 436 q 54 354 112 296 q 170 239 252 239 q 334 239 391 296 q 448 354 448 436 z m 361 407 q 351 317 256 317 q 204 317 172 348 q 140 380 140 432 q 140 484 172 516 q 204 547 256 547 q 348 547 358 470 l 312 468 q 301 504 256 504 q 225 504 206 484 q 188 465 188 433 q 188 401 206 381 q 224 361 256 361 q 309 361 313 407 z"},"\\":{"x_min":0,"x_max":667,"ha":667,"o":"m 633 252 q 622 127 546 56 q 469 -15 344 -15 q 194 -15 112 86 q 35 180 35 333 q 35 490 126 590 q 211 683 352 683 q 489 683 567 598 q 620 541 628 467 l 539 467 q 524 536 472 572 q 421 608 349 608 q 230 608 170 511 q 124 436 124 334 q 124 217 177 143 q 236 60 349 60 q 523 60 546 252 z m 458 341 l 443 342 q 416 344 394 328 q 371 312 363 286 q 357 265 357 224 l 357 121 l 303 121 l 303 387 l 355 387 l 355 335 q 385 395 454 395 l 458 395 z"},"e":{"x_min":0,"x_max":866,"ha":866,"o":"m 849 117 q 849 55 800 23 q 758 -5 693 -5 q 628 -5 586 22 q 537 53 537 115 q 537 189 613 213 q 554 237 554 296 q 554 348 599 376 q 638 400 693 400 q 748 400 787 377 q 833 349 833 297 q 833 238 773 213 q 849 189 849 117 z m 661 665 l 271 1 l 213 1 l 604 665 z m 325 397 q 325 335 280 296 q 236 258 173 258 q 107 258 66 291 q 21 326 21 391 l 83 391 q 91 308 171 308 q 211 308 236 332 q 261 357 261 397 q 261 438 236 462 q 212 486 171 486 q 119 486 91 443 l 32 444 l 75 656 l 306 656 l 306 604 l 123 604 l 102 503 q 138 532 186 532 q 246 532 286 494 q 325 457 325 397 z m 772 293 q 772 354 693 354 q 614 354 614 293 q 614 232 694 232 q 772 232 772 293 z m 784 117 q 784 190 691 190 q 602 190 602 118 q 602 42 693 42 q 784 42 784 117 z"},"b":{"x_min":0,"x_max":866,"ha":866,"o":"m 660 665 l 270 1 l 212 1 l 604 665 z m 324 265 l 24 265 q 24 317 53 352 q 72 376 126 412 l 159 434 q 210 468 221 479 q 254 509 254 544 q 254 610 179 610 q 96 610 96 510 l 33 510 q 33 661 180 661 q 236 661 275 632 q 317 600 317 545 q 317 488 259 440 q 241 425 204 401 q 167 377 154 367 q 131 348 112 324 l 105 315 l 114 315 l 147 316 l 324 316 z m 844 119 q 844 59 797 25 q 754 -6 692 -6 q 625 -6 583 27 q 538 63 538 129 l 538 140 l 601 140 l 601 132 q 601 45 692 45 q 729 45 752 63 q 779 83 779 118 q 779 186 681 186 l 662 186 l 662 231 l 683 230 q 770 226 770 289 q 770 349 694 349 q 611 349 611 262 l 549 262 q 549 329 588 364 q 627 398 695 398 q 750 398 788 374 q 832 345 832 293 q 832 231 773 212 q 844 190 844 119 z"},"%":{"x_min":0,"x_max":500,"ha":500,"o":"m 406 18 l 290 -21 l 362 -117 l 321 -148 l 249 -49 l 177 -147 l 135 -116 l 209 -21 l 95 18 l 111 65 l 225 25 l 224 147 l 276 147 l 274 25 l 389 65 z"},"m":{"x_min":0,"x_max":1000,"ha":1000,"o":"m 980 521 q 980 458 944 418 q 907 379 844 379 q 780 379 743 418 q 706 458 706 522 q 706 586 744 626 q 781 667 845 667 q 908 667 944 626 q 980 585 980 521 z m 994 289 l 693 289 l 693 329 l 994 329 z m 599 1 l 501 1 l 233 408 q 196 465 186 482 q 160 525 144 560 l 148 469 l 148 428 l 149 375 l 149 1 l 65 1 l 65 668 l 161 668 l 520 106 l 515 334 l 514 668 l 599 668 z m 929 521 q 929 566 909 595 q 887 628 844 628 q 800 628 778 596 q 758 568 758 522 q 758 477 778 449 q 801 418 844 418 q 886 418 909 449 q 929 477 929 521 z"},"#":{"x_min":0,"x_max":667,"ha":667,"o":"m 558 115 l 112 115 l 112 561 l 558 561 z"},",":{"x_min":0,"x_max":533,"ha":533,"o":"m 528 54 q 463 -14 378 -14 q 342 -14 302 -1 l 256 14 q 219 26 184 26 q 132 26 77 -14 l 38 43 q 143 122 143 212 q 143 253 122 297 l 29 297 l 29 348 l 100 348 q 48 428 48 489 q 48 576 119 624 q 181 666 272 666 q 498 666 498 441 l 417 441 q 417 596 272 596 q 215 596 178 568 q 137 537 137 482 q 137 450 166 393 l 189 348 l 325 348 l 325 297 l 209 297 q 225 254 225 219 q 225 146 141 66 q 196 91 230 91 q 258 91 302 77 q 355 60 380 60 q 443 60 491 114 z"},"n":{"x_min":0,"x_max":667,"ha":667,"o":"m 623 217 l 58 217 l 58 293 l 623 293 z"},"h":{"x_min":0,"x_max":500,"ha":500,"o":"m 496 436 q 496 333 426 262 q 355 192 252 192 q 150 192 78 263 q 7 334 7 436 q 7 538 78 608 q 149 678 251 678 q 353 678 424 608 q 496 538 496 436 z m 448 436 q 448 518 390 575 q 333 632 251 632 q 169 632 112 575 q 54 518 54 436 q 54 354 112 296 q 170 239 252 239 q 334 239 391 296 q 448 354 448 436 z m 357 479 q 357 408 271 408 l 219 408 l 219 325 l 172 325 l 172 546 l 271 546 q 357 546 357 479 z m 311 478 q 311 505 275 505 l 219 505 l 219 447 l 268 447 q 311 447 311 478 z"},"z":{"x_min":0,"x_max":894,"ha":894,"o":"m 518 683 l 685 683 q 769 683 815 623 q 857 569 857 483 q 857 394 816 337 q 769 273 683 273 l 518 273 z m 575 320 l 681 320 q 744 320 775 371 q 801 413 801 480 q 801 635 677 635 l 575 635 z m 472 684 l 472 274 l 410 274 l 410 612 l 273 274 l 233 274 l 100 611 l 100 274 l 37 274 l 37 684 l 134 684 l 253 393 l 377 684 z"},"B":{"x_min":0,"x_max":500,"ha":500,"o":"m 461 217 l 42 217 l 42 293 l 461 293 z"},"K":{"x_min":0,"x_max":953,"ha":953,"o":"m 875 268 l 814 268 l 814 598 l 681 268 l 642 268 l 512 597 l 512 268 l 450 268 l 450 668 l 545 668 l 661 384 l 782 668 l 875 668 z m 393 382 q 393 318 338 285 q 293 259 224 259 q 146 259 99 290 q 44 327 44 401 l 105 401 q 105 310 228 310 q 330 310 330 378 q 330 424 235 444 l 207 450 l 181 456 q 117 471 94 487 q 59 512 59 561 q 59 621 108 652 q 149 677 213 677 q 377 677 377 550 l 315 550 q 306 626 212 626 q 119 626 119 564 q 119 535 152 521 q 166 514 209 506 l 235 501 q 306 487 339 468 q 393 438 393 382 z"},"R":{"x_min":0,"x_max":500,"ha":500,"o":"m 427 160 l 76 160 l 76 511 l 427 511 z m 379 207 l 379 464 l 123 464 l 123 207 z"},"T":{"x_min":0,"x_max":535,"ha":535,"o":"m 535 604 l 493 607 q 435 611 428 566 q 426 553 426 519 l 426 482 l 524 482 l 524 424 l 426 424 l 426 1 l 343 1 l 343 424 l 171 424 l 171 1 l 88 1 l 88 424 l 7 424 l 7 482 l 88 482 l 88 521 q 88 596 111 625 q 149 673 228 670 l 279 668 l 279 604 l 238 607 q 190 611 177 576 q 170 557 170 519 l 170 482 l 343 482 l 343 521 q 343 595 366 625 q 403 673 482 670 l 535 668 z"},"P":{"x_min":0,"x_max":500,"ha":500,"o":"m 427 159 l 75 159 l 75 510 l 427 510 z"},"|":{"x_min":0,"x_max":852,"ha":852,"o":"m 815 -1 l 34 -1 l 34 781 l 815 781 z m 745 69 l 745 711 l 104 711 l 104 69 z m 666 401 l 286 181 l 286 611 z"},"t":{"x_min":0,"x_max":852,"ha":852,"o":"m 839 -32 l 476 -32 l 476 420 l 539 420 l 539 31 l 839 31 z m 448 361 l 376 361 l 126 687 l 126 361 l 62 361 l 62 781 l 134 781 l 385 455 l 385 781 l 448 781 z"},"M":{"x_min":0,"x_max":866,"ha":866,"o":"m 796 334 q 796 184 691 79 q 586 -26 435 -26 q 283 -26 177 78 q 71 182 71 334 q 71 487 176 592 q 281 697 434 697 q 587 697 692 592 q 796 487 796 334 z"},"g":{"x_min":0,"x_max":500,"ha":500,"o":"m 496 436 q 496 333 426 262 q 355 192 252 192 q 150 192 78 263 q 7 334 7 436 q 7 538 78 608 q 149 678 251 678 q 353 678 424 608 q 496 538 496 436 z m 448 436 q 448 518 390 575 q 333 632 251 632 q 169 632 112 575 q 54 518 54 436 q 54 354 112 296 q 170 239 252 239 q 334 239 391 296 q 448 354 448 436 z m 373 325 l 330 325 l 331 425 l 335 484 l 326 459 l 268 325 l 234 325 l 167 484 l 172 425 l 172 325 l 129 325 l 129 546 l 182 546 l 251 387 l 320 546 l 373 546 z"},"j":{"x_min":0,"x_max":866,"ha":866,"o":"m 839 166 q 839 87 796 40 q 752 -8 674 -8 q 595 -8 550 40 q 505 87 505 166 q 505 245 550 292 q 594 339 673 339 q 751 339 795 292 q 839 245 839 166 z m 644 655 l 269 1 l 212 1 l 590 655 z m 344 459 q 325 325 192 325 q 116 325 72 372 q 28 418 28 495 q 28 575 72 624 q 115 673 194 673 q 326 673 342 552 l 277 552 q 265 622 193 622 q 142 622 116 585 q 92 552 92 499 q 92 447 114 414 q 140 377 190 377 q 268 377 280 459 z m 775 167 q 775 219 751 252 q 723 288 673 288 q 621 288 594 254 q 568 219 568 166 q 568 112 593 79 q 621 43 674 43 q 725 43 752 81 q 775 114 775 167 z"},"i":{"x_min":0,"x_max":780,"ha":780,"o":"m 744 634 l 722 582 q 641 661 560 682 q 522 692 482 692 q 366 692 282 603 q 228 545 205 464 l 674 464 l 649 408 l 198 406 l 198 348 q 198 346 198 343 l 198 341 q 198 339 198 338 l 620 338 l 598 282 l 209 282 q 224 187 284 131 q 360 61 468 61 q 568 61 653 112 q 690 134 721 162 l 721 90 q 607 0 484 0 q 422 0 358 26 q 248 70 179 201 q 159 241 150 282 l 36 280 l 60 338 l 142 338 q 140 345 140 353 l 140 406 l 35 408 l 60 464 l 146 464 q 172 568 236 639 q 301 710 382 735 q 424 748 473 748 q 617 748 744 634 z"},"y":{"x_min":0,"x_max":957,"ha":957,"o":"m 163 -1 l 66 -1 l 66 681 l 254 681 q 490 681 490 497 q 490 430 458 388 q 437 361 390 334 q 452 310 467 266 q 474 243 476 206 l 482 82 q 484 51 488 41 q 494 26 518 14 l 518 -1 l 399 -1 q 382 50 382 170 q 382 234 352 262 q 321 291 254 291 l 163 291 z m 163 370 l 244 370 q 390 370 390 488 q 390 602 261 602 l 163 602 z m 796 302 q 796 377 685 377 q 649 377 623 363 q 591 346 591 313 q 591 287 611 275 q 625 266 677 254 l 756 235 q 820 219 848 200 q 888 172 888 117 q 888 45 829 4 q 777 -31 702 -31 q 500 -31 500 125 l 576 125 q 583 35 701 35 q 809 35 809 105 q 809 149 715 170 l 624 190 q 515 214 515 299 q 515 370 571 408 q 619 442 693 442 q 766 442 816 409 q 873 372 873 302 z"},"@":{"x_min":0,"x_max":366,"ha":366,"o":"m 217 410 q 311 442 311 564 l 311 668 l 223 668 l 223 547 l 263 547 q 263 479 217 457 z m 67 411 q 161 443 161 565 l 161 669 l 73 669 l 73 548 l 113 548 q 113 480 67 458 z"},".":{"x_min":0,"x_max":733,"ha":733,"o":"m 707 1 l 663 -2 q 636 -4 615 7 q 590 20 586 45 q 584 56 584 91 l 584 247 l 533 247 l 533 290 l 584 290 l 584 377 l 645 377 l 645 290 l 707 290 l 707 247 l 645 247 l 645 89 q 645 63 649 56 q 654 45 677 45 l 707 48 z m 556 468 q 556 371 493 318 q 434 269 334 269 l 171 269 l 171 1 l 80 1 l 80 667 l 312 667 q 422 667 474 633 q 556 580 556 468 z m 466 466 q 466 533 417 567 q 384 590 312 590 l 171 590 l 171 341 l 311 341 q 466 341 466 466 z"},"p":{"x_min":0,"x_max":879,"ha":879,"o":"m 822 392 l 674 392 l 674 -1 l 610 -1 l 610 392 l 474 392 l 474 455 l 822 455 z m 448 361 l 385 361 l 385 539 l 126 539 l 126 361 l 62 361 l 62 781 l 126 781 l 126 603 l 385 603 l 385 781 l 448 781 z"},"X":{"x_min":0,"x_max":481,"ha":481,"o":"m 426 1 l 343 1 l 343 668 l 426 668 z m 279 604 l 238 607 q 190 611 177 576 q 170 557 170 519 l 170 482 l 270 482 l 270 424 l 171 424 l 171 1 l 88 1 l 88 424 l 7 424 l 7 482 l 88 482 l 88 521 q 88 596 111 625 q 149 673 228 670 l 279 668 z"},"*":{"x_min":0,"x_max":366,"ha":366,"o":"m 163 93 l 39 216 l 39 296 l 163 419 l 163 334 l 83 254 l 163 174 z m 321 93 l 197 216 l 197 296 l 321 419 l 321 334 l 241 254 l 321 174 z"},"Y":{"x_min":0,"x_max":648,"ha":648,"o":"m 590 1 l 494 1 l 494 125 l 590 125 z m 374 1 l 277 1 l 277 125 l 374 125 z m 157 1 l 62 1 l 62 125 l 157 125 z"},"c":{"x_min":0,"x_max":866,"ha":866,"o":"m 849 117 q 849 55 800 23 q 758 -5 693 -5 q 628 -5 586 22 q 536 54 536 115 q 536 189 612 213 q 554 237 554 296 q 554 348 599 376 q 637 400 692 400 q 747 400 786 377 q 832 349 832 297 q 832 237 772 213 q 849 188 849 117 z m 660 665 l 270 1 l 212 1 l 604 665 z m 771 293 q 771 354 692 354 q 613 354 613 293 q 613 232 693 232 q 771 232 771 293 z m 784 117 q 784 190 691 190 q 601 190 601 118 q 601 42 693 42 q 732 42 756 60 q 784 80 784 117 z m 231 265 l 167 265 l 167 567 l 160 565 l 130 550 q 112 541 64 536 l 64 581 q 111 587 135 601 q 165 618 179 657 l 231 657 z"},"!":{"x_min":0,"x_max":667,"ha":667,"o":"m 576 334 q 576 232 506 162 q 436 93 334 93 q 234 93 164 163 q 93 233 93 333 q 93 435 162 506 q 232 576 334 576 q 437 576 506 506 q 576 437 576 334 z"},"/":{"x_min":0,"x_max":533,"ha":533,"o":"m 490 724 l 479 659 l 434 663 q 389 663 368 632 q 353 610 343 558 l 325 462 l 430 462 l 421 411 l 316 411 l 254 69 q 237 -26 207 -64 q 168 -115 82 -115 q 59 -115 28 -111 l 40 -47 l 77 -50 q 117 -53 139 -22 q 158 8 174 94 l 231 411 l 139 410 l 148 462 l 240 462 l 259 561 q 276 649 307 684 q 345 728 427 728 l 455 728 q 477 725 490 724 z"},"[":{"x_min":0,"x_max":500,"ha":500,"o":"m 483 593 l 148 593 l 148 374 l 439 374 l 439 304 l 148 304 l 148 1 l 63 1 l 63 668 l 483 668 z m 450 211 l 443 209 l 422 208 q 384 206 363 171 q 354 156 354 113 l 354 1 l 301 1 l 301 261 l 352 261 l 352 201 q 380 269 438 264 l 450 263 z"},"6":{"x_min":0,"x_max":320,"ha":320,"o":"m 293 268 l 231 268 l 231 439 q 231 491 204 508 q 189 516 169 516 q 92 516 92 419 l 92 268 l 30 268 l 30 557 l 90 557 l 90 519 q 124 564 187 564 q 245 564 273 526 q 293 499 293 449 z"},"r":{"x_min":0,"x_max":861,"ha":861,"o":"m 825 306 q 825 222 774 183 q 757 170 722 160 l 808 0 l 736 0 l 649 158 l 513 158 l 513 0 l 449 0 l 449 451 l 695 451 q 755 451 790 409 q 825 367 825 306 z m 420 722 l 130 722 l 130 393 l 418 393 l 418 329 l 66 329 l 66 785 l 420 785 z m 762 306 q 762 388 682 388 l 513 388 l 513 222 l 684 222 q 762 222 762 306 z"},"2":{"x_min":0,"x_max":866,"ha":866,"o":"m 660 665 l 270 1 l 212 1 l 604 665 z m 841 1 l 541 1 q 541 53 570 88 q 589 112 643 148 l 676 170 q 727 204 738 215 q 771 245 771 280 q 771 346 696 346 q 613 346 613 246 l 550 246 q 550 397 697 397 q 753 397 792 368 q 834 336 834 281 q 834 224 776 176 q 758 161 721 137 q 684 113 671 103 q 648 84 629 60 l 622 51 l 631 51 l 664 52 l 841 52 z m 232 265 l 168 265 l 168 567 l 161 565 l 131 550 q 113 541 65 536 l 65 581 q 112 587 136 601 q 166 618 180 657 l 232 657 z"},"{":{"x_min":0,"x_max":930,"ha":930,"o":"m 829 564 q 813 645 715 645 q 649 645 613 595 q 581 551 581 483 q 581 313 717 313 q 812 313 835 425 l 888 425 q 876 350 830 308 q 785 266 710 266 q 619 266 569 329 q 524 387 524 481 q 524 574 572 632 q 624 694 715 694 q 781 694 826 662 q 875 627 884 564 z m 474 684 l 474 274 l 412 274 l 412 612 l 275 274 l 235 274 l 102 611 l 102 274 l 39 274 l 39 684 l 136 684 l 255 393 l 379 684 z"},"9":{"x_min":0,"x_max":667,"ha":667,"o":"m 621 127 l 575 80 l 479 177 q 406 127 336 127 q 270 127 192 176 l 96 80 l 50 127 l 146 223 q 96 289 96 364 q 96 434 145 505 l 48 602 l 95 647 l 191 552 q 270 602 335 602 q 378 602 410 590 q 434 580 477 552 l 573 647 l 619 602 l 523 506 q 573 431 573 363 q 573 297 524 224 z m 497 363 q 497 432 450 479 q 404 526 335 526 q 267 526 220 479 q 173 432 173 364 q 173 296 220 248 q 267 201 334 201 q 402 201 450 248 q 497 295 497 363 z"}," ":{"x_min":0,"x_max":500,"ha":500,"o":""},"I":{"x_min":0,"x_max":500,"ha":500,"o":"m 476 44 l 292 44 l 292 -138 l 211 -138 l 211 44 l 27 44 l 27 115 l 211 115 l 211 416 l 27 416 l 27 488 l 211 488 l 211 668 l 292 668 l 292 488 l 476 488 l 476 416 l 292 416 l 292 115 l 476 115 z"},"H":{"x_min":0,"x_max":500,"ha":500,"o":"m 476 393 l 291 393 l 291 -138 l 210 -138 l 210 393 l 26 393 l 26 466 l 210 466 l 210 668 l 291 668 l 291 466 l 476 466 z"},"4":{"x_min":0,"x_max":533,"ha":533,"o":"m 497 272 q 486 179 428 130 q 369 81 275 81 q 248 81 209 89 l 176 -2 l 140 12 l 172 102 q 41 162 41 334 q 41 446 104 518 q 167 589 278 589 q 304 589 347 581 l 373 655 l 410 642 l 384 569 q 482 528 494 416 l 412 416 q 403 473 360 504 l 232 152 q 255 146 277 146 q 400 146 415 272 z m 324 520 q 300 526 280 526 q 202 526 161 469 q 125 418 125 337 q 125 218 196 169 z"},"~":{"x_min":0,"x_max":872,"ha":872,"o":"m 825 -1 l 44 -1 l 44 781 l 825 781 z m 755 69 l 755 711 l 114 711 l 114 69 z m 384 246 l 302 246 l 302 555 l 384 555 z m 567 246 l 485 246 l 485 555 l 567 555 z"},"D":{"x_min":0,"x_max":233,"ha":233,"o":"m 174 99 l 51 217 l 51 297 l 174 418 l 174 339 l 95 256 l 174 175 z"},"^":{"x_min":0,"x_max":667,"ha":667,"o":"m 596 54 q 531 -14 445 -14 q 409 -14 369 -1 l 323 14 q 286 26 251 26 q 198 26 145 -14 l 105 43 q 146 72 174 111 q 206 156 206 208 l 206 212 l 91 212 l 91 261 l 203 261 q 199 271 196 280 q 193 289 182 312 l 173 328 l 164 345 l 88 345 l 88 395 l 142 395 q 115 444 115 487 q 115 576 186 624 q 247 666 340 666 q 565 666 565 441 l 484 441 q 484 596 340 596 q 283 596 246 568 q 204 537 204 482 q 204 447 232 395 l 386 395 l 386 345 l 253 345 l 261 327 l 269 311 l 279 287 l 288 261 l 386 261 l 386 212 l 286 212 l 285 206 l 282 172 q 280 144 246 105 q 236 90 208 66 q 261 91 298 91 q 324 91 372 76 q 421 60 447 60 q 511 60 559 114 z"},"0":{"x_min":0,"x_max":347,"ha":347,"o":"m 297 387 l 244 387 q 238 405 238 424 q 207 379 141 379 q 43 379 43 460 q 43 537 161 546 l 199 549 q 220 551 228 556 q 237 562 237 580 q 237 631 174 631 q 115 631 105 572 l 57 572 q 57 667 177 667 q 239 667 268 639 q 288 619 288 576 l 288 567 l 287 536 l 287 458 q 287 409 297 387 z m 328 289 l 27 289 l 27 329 l 328 329 z m 237 504 l 237 526 q 225 517 200 517 l 167 513 q 96 513 96 462 q 96 414 152 414 q 237 414 237 504 z"},"F":{"x_min":0,"x_max":866,"ha":866,"o":"m 797 335 q 797 183 692 78 q 587 -27 435 -27 q 283 -27 178 78 q 72 182 72 334 q 72 486 177 591 q 282 696 435 696 q 587 696 692 591 q 797 486 797 335 z m 738 334 q 738 460 650 550 q 562 639 436 639 q 310 639 220 550 q 130 462 130 336 q 130 209 219 120 q 308 30 435 30 q 561 30 650 119 q 738 208 738 334 z"},"`":{"x_min":0,"x_max":365,"ha":365,"o":"m 204 -134 q 298 -102 298 20 l 298 124 l 210 124 l 210 3 l 250 3 q 250 -65 204 -87 z m 54 -133 q 148 -101 148 21 l 148 125 l 60 125 l 60 4 l 100 4 q 100 -64 54 -86 z"},"k":{"x_min":0,"x_max":866,"ha":866,"o":"m 816 1 l 758 1 l 758 44 q 709 -9 644 -9 q 528 -9 528 117 l 528 329 l 590 329 l 590 136 q 590 94 596 77 q 608 42 659 42 q 715 42 741 88 q 754 111 754 170 l 754 329 l 816 329 z m 645 654 l 270 1 l 213 1 l 591 654 z m 345 458 q 326 324 193 324 q 117 324 73 370 q 29 417 29 494 q 29 574 72 623 q 116 672 195 672 q 327 672 343 551 l 278 551 q 266 621 194 621 q 143 621 117 584 q 93 551 93 498 q 93 446 115 413 q 141 376 191 376 q 269 376 281 458 z"},"u":{"x_min":0,"x_max":771,"ha":771,"o":"m 466 793 l 296 361 l 229 361 l 57 793 l 125 793 l 262 447 l 398 793 z m 740 388 l 587 388 l 587 -5 l 523 -5 l 523 388 l 379 388 l 379 451 l 740 451 z"},"]":{"x_min":0,"x_max":667,"ha":667,"o":"m 616 1 l 281 1 l 281 211 q 223 211 186 225 q 144 242 110 283 q 60 343 60 440 q 60 543 122 607 q 183 671 286 671 q 360 671 415 636 q 477 596 484 527 l 414 527 q 392 615 284 615 q 209 615 168 564 q 129 517 129 441 q 129 373 162 325 q 202 267 281 267 l 281 441 l 609 441 l 609 384 l 350 384 l 350 254 l 596 254 l 596 200 l 350 200 l 350 58 l 616 58 z"},"U":{"x_min":0,"x_max":736,"ha":736,"o":"m 681 562 l 597 562 l 597 668 l 681 668 z m 681 1 l 597 1 l 597 424 l 425 424 l 425 1 l 342 1 l 342 424 l 170 424 l 170 1 l 87 1 l 87 424 l 6 424 l 6 482 l 87 482 l 87 521 q 87 596 110 625 q 148 673 227 670 l 278 668 l 278 604 l 237 607 q 189 611 176 576 q 169 557 169 519 l 169 482 l 342 482 l 342 521 q 342 595 365 625 q 402 673 481 670 l 534 668 l 534 604 l 492 607 q 453 610 437 587 q 425 574 425 519 l 425 482 l 681 482 z"},"o":{"x_min":0,"x_max":360,"ha":360,"o":"m 235 265 l 171 265 l 171 567 l 164 565 l 134 550 q 116 541 68 536 l 68 581 q 115 587 139 601 q 169 618 183 657 l 235 657 z"},"N":{"x_min":0,"x_max":500,"ha":500,"o":"m 440 336 q 440 256 386 201 q 331 146 251 146 q 173 146 118 201 q 62 256 62 334 q 62 414 117 469 q 172 524 252 524 q 331 524 386 470 q 440 415 440 336 z m 393 335 q 393 393 352 435 q 310 477 252 477 q 194 477 152 435 q 110 393 110 335 q 110 276 151 234 q 192 193 251 193 q 309 193 351 235 q 393 277 393 335 z"},"+":{"x_min":0,"x_max":366,"ha":366,"o":"m 208 93 l 332 216 l 332 296 l 208 419 l 208 334 l 288 254 l 208 174 z m 50 93 l 174 216 l 174 296 l 50 419 l 50 334 l 130 254 l 50 174 z"},"G":{"x_min":0,"x_max":800,"ha":800,"o":"m 734 1 l 68 1 l 68 667 l 734 667 z m 679 57 l 679 611 l 124 611 l 124 57 z"},"q":{"x_min":0,"x_max":820,"ha":820,"o":"m 416 534 l 126 534 l 126 342 l 62 342 l 62 812 l 416 812 l 416 749 l 126 749 l 126 598 l 416 598 z m 758 173 l 468 173 l 468 0 l 404 0 l 404 451 l 758 451 l 758 388 l 468 388 l 468 236 l 758 236 z"},"d":{"x_min":0,"x_max":866,"ha":866,"o":"m 849 117 q 849 55 800 23 q 758 -5 693 -5 q 628 -5 586 22 q 537 53 537 115 q 537 189 613 213 q 554 237 554 296 q 554 348 599 376 q 638 400 693 400 q 749 400 787 377 q 832 349 832 297 q 832 237 773 213 q 849 189 849 117 z m 661 665 l 271 1 l 213 1 l 604 665 z m 772 293 q 772 354 692 354 q 614 354 614 293 q 614 232 694 232 q 772 232 772 293 z m 784 117 q 784 190 691 190 q 602 190 602 118 q 602 42 693 42 q 784 42 784 117 z m 328 383 q 328 323 281 289 q 238 258 176 258 q 109 258 67 291 q 22 327 22 393 l 22 404 l 85 404 l 85 396 q 85 309 176 309 q 213 309 236 327 q 263 347 263 382 q 263 450 165 450 l 146 450 l 146 495 l 167 494 q 254 490 254 553 q 254 613 178 613 q 95 613 95 526 l 33 526 q 33 593 72 628 q 111 662 179 662 q 234 662 272 638 q 316 609 316 557 q 316 495 257 476 q 328 454 328 383 z"},"1":{"x_min":0,"x_max":347,"ha":347,"o":"m 312 522 q 312 458 276 418 q 239 379 175 379 q 111 379 74 419 q 37 459 37 523 q 37 587 74 627 q 112 667 176 667 q 239 667 276 626 q 312 586 312 522 z m 325 289 l 24 289 l 24 329 l 325 329 z m 261 522 q 261 567 241 595 q 218 628 175 628 q 132 628 109 595 q 89 567 89 522 q 89 477 109 449 q 132 418 176 418 q 218 418 241 450 q 261 478 261 522 z"},"5":{"x_min":0,"x_max":360,"ha":360,"o":"m 330 265 l 30 265 q 30 317 59 352 q 78 376 132 412 l 165 434 q 216 468 227 479 q 260 509 260 544 q 260 610 185 610 q 102 610 102 510 l 39 510 q 39 661 186 661 q 242 661 281 632 q 323 600 323 545 q 323 488 265 440 q 247 425 210 401 q 173 377 160 367 q 137 348 118 324 l 111 315 l 120 315 l 153 316 l 330 316 z"}}}
